<svg width="27" height="26" viewBox="0 0 27 26" fill="none" xmlns="http://www.w3.org/2000/svg">
<path d="M16.7151 -9.19438e-07C14.8238 -0.000973175 12.9711 0.534666 11.3721 1.5447C9.77315 2.55473 8.49355 3.99769 7.68198 5.70598C6.87041 7.41426 6.56017 9.31775 6.78729 11.1953C7.01442 13.0729 7.76959 14.8475 8.96509 16.313L0.996094 24.281L2.43409 25.719L10.4031 17.75C11.6446 18.7624 13.1112 19.4617 14.6794 19.789C16.2476 20.1164 17.8715 20.0621 19.4144 19.6309C20.9572 19.1997 22.3739 18.4042 23.5452 17.3112C24.7164 16.2183 25.608 14.8599 26.1447 13.3505C26.6814 11.8411 26.8477 10.2249 26.6295 8.6378C26.4113 7.05074 25.8149 5.53934 24.8907 4.23083C23.9665 2.92232 22.7415 1.855 21.3187 1.11873C19.8959 0.382457 18.3171 -0.00121984 16.7151 -9.19438e-07ZM16.7151 2C18.2973 2 19.8441 2.46919 21.1597 3.34824C22.4752 4.22729 23.5006 5.47672 24.1061 6.93853C24.7116 8.40034 24.8701 10.0089 24.5614 11.5607C24.2527 13.1126 23.4908 14.538 22.3719 15.6569C21.2531 16.7757 19.8277 17.5376 18.2758 17.8463C16.724 18.155 15.1154 17.9965 13.6536 17.391C12.1918 16.7855 10.9424 15.7602 10.0633 14.4446C9.18429 13.129 8.71509 11.5822 8.71509 10C8.71312 8.94887 8.91869 7.90769 9.32003 6.93619C9.72137 5.9647 10.3106 5.082 11.0538 4.33874C11.7971 3.59547 12.6798 3.00627 13.6513 2.60494C14.6228 2.2036 15.664 1.99802 16.7151 2Z" fill="white"/>
</svg>
